<?xml version="1.0" encoding="UTF-8" standalone="no"?><!DOCTYPE svg PUBLIC "-//W3C//DTD SVG 1.1//EN" "http://www.w3.org/Graphics/SVG/1.1/DTD/svg11.dtd"><svg width="100%" height="100%" viewBox="0 0 100 100" version="1.1" xmlns="http://www.w3.org/2000/svg" xmlns:xlink="http://www.w3.org/1999/xlink" xml:space="preserve" xmlns:serif="http://www.serif.com/" style="fill-rule:evenodd;clip-rule:evenodd;stroke-linecap:round;stroke-linejoin:round;stroke-miterlimit:1.5;"><path d="M77.974,70.327c0,0 -1.069,15.135 -11.123,19.454l-11.337,-5.534c0,0 10.766,-5.571 10.511,-13.92l0,-36.27l11.949,0l0,36.27Z" style="fill:#fff;stroke:#fff;stroke-width:1px;"/><path d="M45.848,72.645c-2.571,1.168 -5.428,1.82 -8.434,1.82c-11.275,-0 -20.429,-9.154 -20.429,-20.429c0,-11.274 9.154,-20.428 20.429,-20.428c3.006,-0 5.863,0.651 8.434,1.82l0,-21.458l11.994,0l-0,58.913l-11.994,0l0,-0.238Zm0,-9.62c0.012,-0.007 0.023,-0.014 0.035,-0.02l-0,-17.806c-0.012,-0.006 -0.023,-0.013 -0.035,-0.019c-1.564,-0.89 -3.336,-1.358 -5.14,-1.358c-5.711,0 -10.348,4.606 -10.348,10.28c-0,5.674 4.637,10.28 10.348,10.28c1.804,0 3.576,-0.468 5.14,-1.357Z" style="fill:#fff;stroke:#fff;stroke-width:1px;"/><rect x="66.025" y="13.97" width="11.949" height="12.003" style="fill:#fff;stroke:#fff;stroke-width:1px;"/></svg>