<?xml version="1.0" encoding="UTF-8" standalone="no"?><!DOCTYPE svg PUBLIC "-//W3C//DTD SVG 1.1//EN" "http://www.w3.org/Graphics/SVG/1.1/DTD/svg11.dtd"><svg width="100%" height="100%" viewBox="0 0 53 53" version="1.1" xmlns="http://www.w3.org/2000/svg" xmlns:xlink="http://www.w3.org/1999/xlink" xml:space="preserve" xmlns:serif="http://www.serif.com/" style="fill-rule:evenodd;clip-rule:evenodd;stroke-linejoin:round;stroke-miterlimit:2;"><circle cx="26.491" cy="26.491" r="26.491" style="fill:#ff7f11;"/><path d="M24.6,34.707c-0.014,-0.512 -0.021,-0.897 -0.021,-1.154c-0,-1.51 0.208,-2.813 0.623,-3.91c0.305,-0.826 0.797,-1.66 1.476,-2.5c0.499,-0.613 1.392,-1.503 2.681,-2.671c1.302,-1.183 2.148,-2.123 2.536,-2.821c0.388,-0.698 0.582,-1.46 0.582,-2.287c-0,-1.496 -0.569,-2.806 -1.705,-3.932c-1.136,-1.139 -2.528,-1.709 -4.177,-1.709c-1.594,-0 -2.924,0.513 -3.991,1.538c-1.066,1.026 -1.766,2.629 -2.099,4.809l-3.845,-0.471c0.347,-2.92 1.372,-5.157 3.076,-6.71c1.718,-1.552 3.984,-2.329 6.797,-2.329c2.978,0 5.355,0.834 7.128,2.5c1.774,1.667 2.66,3.683 2.66,6.048c0,1.368 -0.311,2.628 -0.935,3.782c-0.623,1.154 -1.843,2.557 -3.658,4.21c-1.219,1.111 -2.016,1.93 -2.39,2.457c-0.374,0.528 -0.651,1.133 -0.831,1.817c-0.18,0.684 -0.284,1.795 -0.312,3.333l-3.595,0Zm-0.229,7.715l0,-4.381l4.261,-0l-0,4.381l-4.261,-0Z" style="fill:#fff;fill-rule:nonzero;"/></svg>