<?xml version="1.0" encoding="UTF-8" standalone="no"?>
<!DOCTYPE svg PUBLIC "-//W3C//DTD SVG 1.1//EN" "http://www.w3.org/Graphics/SVG/1.1/DTD/svg11.dtd">
<svg width="100%" height="100%" viewBox="0 0 297 559" version="1.1" xmlns="http://www.w3.org/2000/svg" xmlns:xlink="http://www.w3.org/1999/xlink" xml:space="preserve" xmlns:serif="http://www.serif.com/" style="fill-rule:evenodd;clip-rule:evenodd;stroke-linejoin:round;stroke-miterlimit:2;">
    <g transform="matrix(2.77778,0,0,2.77778,-3936.12,-2363.84)">
        <g transform="matrix(1,0,0,1,310.659,566.209)">
            <g transform="matrix(1,0,0,1,38.5053,33.4022)">
                <path d="M1174.67,251.373L1174.67,405.156C1168.56,410.076 1161.96,414.148 1154.9,416.758C1141.03,421.892 1131.89,437.334 1126.08,452.329L1067.84,452.329C1075.72,435.422 1092.1,412.721 1125.89,396.01C1183.32,367.612 1120.98,316.69 1174.67,251.373Z" style="fill:url(#_Linear1);"/>
            </g>
            <g transform="matrix(1,0,0,1,38.5053,33.4022)">
                <path d="M1174.67,405.156L1174.67,452.329L1126.08,452.329C1131.89,437.334 1141.03,421.892 1154.9,416.758C1161.96,414.148 1168.56,410.076 1174.67,405.156Z" style="fill:url(#_Linear2);"/>
            </g>
        </g>
    </g>
    <defs>
        <linearGradient id="_Linear1" x1="0" y1="0" x2="1" y2="0" gradientUnits="userSpaceOnUse" gradientTransform="matrix(62.987,-130.5,130.5,62.987,1102.98,452.329)"><stop offset="0" style="stop-color:rgb(255,127,17);stop-opacity:1"/><stop offset="1" style="stop-color:rgb(218,48,62);stop-opacity:1"/></linearGradient>
        <linearGradient id="_Linear2" x1="0" y1="0" x2="1" y2="0" gradientUnits="userSpaceOnUse" gradientTransform="matrix(-24.2917,35.1546,-35.1546,-24.2917,1174.67,417.175)"><stop offset="0" style="stop-color:rgb(255,127,17);stop-opacity:1"/><stop offset="1" style="stop-color:rgb(218,48,62);stop-opacity:1"/></linearGradient>
    </defs>
</svg>
