<?xml version="1.0" encoding="UTF-8" standalone="no"?><!DOCTYPE svg PUBLIC "-//W3C//DTD SVG 1.1//EN" "http://www.w3.org/Graphics/SVG/1.1/DTD/svg11.dtd"><svg width="100%" height="100%" viewBox="0 0 678 612" version="1.1" xmlns="http://www.w3.org/2000/svg" xmlns:xlink="http://www.w3.org/1999/xlink" xml:space="preserve" xmlns:serif="http://www.serif.com/" style="fill-rule:evenodd;clip-rule:evenodd;stroke-linejoin:round;stroke-miterlimit:2;"><path d="M113.587,0l564.191,0l-0,611.111l-677.778,0l0,-548.766c14.596,-4.635 29.936,-11.87 38.844,-22.993c20.721,-25.876 27.976,-24.183 46.113,-22.732c14.86,1.189 16.733,-4.928 28.63,-16.62Z" style="fill:#fff;"/><path d="M46.969,0l66.618,0c-11.897,11.692 -13.77,17.809 -28.63,16.62c-18.137,-1.451 -25.392,-3.144 -46.113,22.732c-8.908,11.123 -24.248,18.358 -38.844,22.993l0,-27.045c7.329,-3.367 15.12,-7.681 22.253,-13.101c9.464,-7.193 16.611,-15.282 24.716,-22.199Z" style="fill:#ff7f11;"/><path d="M0,35.3l0,-35.3l46.969,0c-8.105,6.917 -15.252,15.006 -24.716,22.199c-7.133,5.42 -14.924,9.734 -22.253,13.101Z" style="fill:#2563eb;"/></svg>