<?xml version="1.0" encoding="UTF-8" standalone="no"?>
<!DOCTYPE svg PUBLIC "-//W3C//DTD SVG 1.1//EN" "http://www.w3.org/Graphics/SVG/1.1/DTD/svg11.dtd">
<svg width="100%" height="100%" viewBox="0 0 123 101" version="1.1" xmlns="http://www.w3.org/2000/svg" xmlns:xlink="http://www.w3.org/1999/xlink" xml:space="preserve" xmlns:serif="http://www.serif.com/" style="fill-rule:evenodd;clip-rule:evenodd;stroke-linecap:round;stroke-linejoin:round;stroke-miterlimit:1.5;">
    <g transform="matrix(1,0,0,1,-135.906,-1306.5)">
        <g transform="matrix(1,0,0,1,136.406,2.04636e-12)">
            <path d="M122,1394.27L122,1407L45.974,1407C52.309,1403.46 61.579,1407.14 70.85,1403.89C80.121,1400.65 87.538,1396.32 92.173,1396.32C96.809,1396.32 100.98,1400.19 108.397,1395.4C112.398,1392.81 117.838,1393.29 122,1394.27Z" style="fill:rgb(255,183,121);stroke:rgb(255,183,121);stroke-width:1px;"/>
        </g>
        <g transform="matrix(1,0,0,1,136.406,2.04636e-12)">
            <path d="M47.837,1307L122,1307L122,1394.27C117.838,1393.29 112.398,1392.81 108.397,1395.4C100.98,1400.19 96.809,1396.32 92.173,1396.32C87.538,1396.32 80.121,1400.65 70.85,1403.89C61.579,1407.14 52.309,1403.46 45.974,1407L0,1407L0,1334.71C1.905,1333.42 3.671,1332 4.766,1330.6C8.243,1326.16 2.256,1322.98 4.766,1318.97C7.277,1314.96 5.346,1314.96 7.277,1312.25C9.209,1309.55 12.423,1311.87 19.569,1312.25C26.715,1312.64 27.075,1308.9 32.531,1309.29C37.987,1309.67 43.974,1307.73 47.837,1307Z" style="fill:rgb(30,31,33);"/>
        </g>
        <g transform="matrix(1,0,0,1,136.406,2.04636e-12)">
            <path d="M0,1334.71L0,1307L47.837,1307C43.974,1307.73 37.987,1309.67 32.531,1309.29C27.075,1308.9 26.715,1312.64 19.569,1312.25C12.423,1311.87 9.209,1309.55 7.277,1312.25C5.346,1314.96 7.277,1314.96 4.766,1318.97C2.256,1322.98 8.243,1326.16 4.766,1330.6C3.671,1332 1.905,1333.42 0,1334.71Z" style="fill:rgb(121,121,255);stroke:rgb(121,121,255);stroke-width:1px;"/>
        </g>
    </g>
</svg>
