<?xml version="1.0" encoding="UTF-8" standalone="no"?>
<!DOCTYPE svg PUBLIC "-//W3C//DTD SVG 1.1//EN" "http://www.w3.org/Graphics/SVG/1.1/DTD/svg11.dtd">
<svg width="100%" height="100%" viewBox="0 0 10678 6012" version="1.1" xmlns="http://www.w3.org/2000/svg" xmlns:xlink="http://www.w3.org/1999/xlink" xml:space="preserve" xmlns:serif="http://www.serif.com/" style="fill-rule:evenodd;clip-rule:evenodd;stroke-linecap:round;stroke-linejoin:round;stroke-miterlimit:1.5;">
    <g transform="matrix(5.55556,0,0,5.55556,26992.9,-16311.1)">
        <g transform="matrix(1,0,0,1,-4857.72,2936.99)">
            <path d="M1608.89,1080L467.408,1080C495.079,1039.36 535.322,995.588 582.801,989.798C673.987,978.678 751.828,898.892 845.239,896.528C938.649,894.164 1036.51,887.772 1132.14,896.528C1227.78,905.284 1441.29,987.574 1492.44,989.798C1522.84,991.12 1554.03,1036.44 1608.89,1080Z" style="fill:rgb(204,224,255);stroke:white;stroke-width:2px;"/>
        </g>
        <g transform="matrix(1,0,0,1,-4857.72,2936.99)">
            <path d="M1920,995.126L1920,1080L1608.89,1080C1554.03,1036.44 1522.84,991.12 1492.44,989.798C1441.29,987.574 1227.78,905.284 1132.14,896.528C1036.51,887.772 938.649,894.164 845.239,896.528C751.828,898.892 673.987,978.678 582.801,989.798C535.322,995.588 495.079,1039.36 467.408,1080L0,1080L-0,1012.91C56.646,974.379 128.296,936.871 199.947,929.543C356.52,913.53 336.948,869.049 502.418,842.36C667.887,815.671 612.731,751.619 883.176,707.138C1153.62,662.657 1126.93,707.138 1271.05,707.138C1415.17,707.138 1388.48,799.658 1516.59,804.996C1644.69,810.334 1575.3,861.932 1721.2,869.049C1824.86,874.105 1848.58,959.102 1920,995.126Z" style="fill:rgb(214,231,255);stroke:white;stroke-width:2px;"/>
        </g>
        <g transform="matrix(1,0,0,1,-4857.72,2936.99)">
            <path d="M1920,777.124L1920,995.126C1848.58,959.102 1824.86,874.105 1721.2,869.049C1575.3,861.932 1644.69,810.334 1516.59,804.996C1388.48,799.658 1415.17,707.138 1271.05,707.138C1126.93,707.138 1153.62,662.657 883.176,707.138C612.731,751.619 667.887,815.671 502.418,842.36C336.948,869.049 356.52,913.53 199.947,929.543C128.296,936.871 56.646,974.379 -0,1012.91L-0,753.897C76.01,714.175 165.96,668.785 186.92,665.086C224.728,658.414 189.144,676.207 318.139,640.622C447.134,605.037 424.893,563.925 544.992,540C665.091,516.075 687.331,464.922 814.102,493.834C940.873,522.747 1034.28,550.581 1089.88,540C1145.49,529.419 1214.43,523.892 1281.15,540C1347.88,556.108 1419.04,605.037 1492.44,605.037C1565.83,605.037 1596.97,676.207 1670.36,665.086C1743.76,653.966 1705.95,702.895 1870.53,758.497C1888.19,764.463 1904.64,770.715 1920,777.124Z" style="fill:rgb(224,238,255);stroke:white;stroke-width:2px;"/>
        </g>
        <g transform="matrix(1,0,0,1,-4857.72,2936.99)">
            <path d="M1920,605.377L1920,777.124C1904.64,770.715 1888.19,764.463 1870.53,758.497C1705.95,702.895 1743.76,653.966 1670.36,665.086C1596.97,676.207 1565.83,605.037 1492.44,605.037C1419.04,605.037 1347.88,556.108 1281.15,540C1214.43,523.892 1145.49,529.419 1089.88,540C1034.28,550.581 940.873,522.747 814.102,493.834C687.331,464.922 665.091,516.075 544.992,540C424.893,563.925 447.134,605.037 318.139,640.622C189.144,676.207 224.728,658.414 186.92,665.086C165.96,668.785 76.01,714.175 -0,753.897L-0,517.697C60.059,471.267 131.111,428.794 193.592,424.889C335.931,415.993 353.724,327.03 460.478,335.927C567.232,344.823 731.812,364.839 794.086,335.927C856.359,307.014 923.209,289.222 1009.88,298.118C1096.56,307.014 1152.16,313.686 1234.45,335.927C1316.74,358.167 1379.01,444.905 1459.08,424.889C1539.14,404.872 1601.42,456.026 1685.93,451.577C1770.44,447.129 1812.7,602.813 1894.99,602.813C1904.03,602.813 1912.31,603.729 1920,605.377Z" style="fill:rgb(236,243,254);stroke:white;stroke-width:2px;"/>
        </g>
        <g transform="matrix(1,0,0,1,-4857.72,2936.99)">
            <path d="M1920,382.277L1920,605.377C1912.31,603.729 1904.03,602.813 1894.99,602.813C1812.7,602.813 1770.44,447.129 1685.93,451.577C1601.42,456.026 1539.14,404.872 1459.08,424.889C1379.01,444.905 1316.74,358.167 1234.45,335.927C1152.16,313.686 1096.56,307.014 1009.88,298.118C923.209,289.222 856.359,307.014 794.086,335.927C731.812,364.839 567.232,344.823 460.478,335.927C353.724,327.03 335.931,415.993 193.592,424.889C131.111,428.794 60.059,471.267 -0,517.697L-0,296.304C96.848,251.311 198.236,196.763 246.969,178.019C333.707,144.658 444.909,149.106 573.905,144.658C702.9,140.21 782.965,164.675 822.998,178.019C863.031,191.363 1016.49,142.434 1094.33,144.658C1172.17,146.882 1221.1,202.484 1272.26,202.484C1323.41,202.484 1374.56,240.292 1441.29,233.62C1508.01,226.948 1614.76,289.066 1679.26,295.816C1743.76,302.566 1817.15,353.719 1868.3,362.615C1883.33,365.229 1901.27,372.837 1920,382.277Z" style="fill:rgb(245,249,255);stroke:white;stroke-width:2px;"/>
        </g>
        <g transform="matrix(1,0,0,1,-4857.72,2936.99)">
            <path d="M-0,296.304L0,0L1920,0L1920,382.277C1901.27,372.837 1883.33,365.229 1868.3,362.615C1817.15,353.719 1743.76,302.566 1679.26,295.816C1614.76,289.066 1508.01,226.948 1441.29,233.62C1374.56,240.292 1323.41,202.484 1272.26,202.484C1221.1,202.484 1172.17,146.882 1094.33,144.658C1016.49,142.434 863.031,191.363 822.998,178.019C782.965,164.675 702.9,140.21 573.905,144.658C444.909,149.106 333.707,144.658 246.969,178.019C198.236,196.763 96.848,251.311 -0,296.304Z" style="fill:white;stroke:white;stroke-width:2px;"/>
        </g>
    </g>
</svg>
