<?xml version="1.0" encoding="UTF-8" standalone="no"?>
<!DOCTYPE svg PUBLIC "-//W3C//DTD SVG 1.1//EN" "http://www.w3.org/Graphics/SVG/1.1/DTD/svg11.dtd">
<svg width="100%" height="100%" viewBox="0 0 978 1228" version="1.1" xmlns="http://www.w3.org/2000/svg" xmlns:xlink="http://www.w3.org/1999/xlink" xml:space="preserve" xmlns:serif="http://www.serif.com/" style="fill-rule:evenodd;clip-rule:evenodd;stroke-linecap:round;stroke-linejoin:round;stroke-miterlimit:1.5;">
    <g transform="matrix(2.77778,0,0,2.77778,-1401.19,-1775)">
        <g transform="matrix(1,0,0,1,-620.262,175.181)">
            <path d="M1475.69,821.495L1475.69,904.819L1422.37,904.819C1422.37,904.819 1403.56,864.383 1444.86,839.967C1456.05,833.348 1466.43,827.33 1475.69,821.495Z" style="fill:rgb(188,188,188);stroke:rgb(188,188,188);stroke-width:2px;"/>
        </g>
        <g transform="matrix(1,0,0,1,-620.262,175.181)">
            <path d="M1475.69,709.429L1475.69,782.972C1456.9,791.223 1436.4,800.887 1417.14,814.669C1377.82,842.795 1374.98,881.371 1377.77,904.819L1348.14,904.819C1348.14,904.819 1326.68,835.267 1379.46,798.154C1432.23,761.04 1463.49,766.259 1475.69,709.429Z" style="fill:rgb(124,124,124);stroke:rgb(124,124,124);stroke-width:2px;"/>
        </g>
        <g transform="matrix(1,0,0,1,-620.262,175.181)">
            <path d="M1475.69,614.324L1475.69,709.429C1463.49,766.259 1432.23,761.04 1379.46,798.154C1326.68,835.267 1348.14,904.819 1348.14,904.819L1268.85,904.819C1264.14,883.826 1260.71,835.527 1307.55,782.568C1348.79,735.934 1368.52,754.157 1383.15,741.573C1390.75,735.046 1414.35,711.468 1402.07,684.819C1376.98,630.358 1427.87,627.465 1475.69,614.324Z" style="fill:rgb(102,102,102);stroke:rgb(102,102,102);stroke-width:2px;"/>
        </g>
        <g transform="matrix(1,0,0,1,-620.262,175.181)">
            <path d="M1125.69,692.965L1125.69,650.624C1138.15,641.877 1152.34,629.217 1160.95,612.832C1178.93,578.618 1166.17,542.085 1191.68,502.071C1217.2,462.058 1219.52,497.155 1279.25,464.819L1352.24,464.819C1339.01,484.194 1312.5,503.945 1259.42,507.334C1198.23,511.239 1187.51,532.269 1192.73,604.757C1195.84,647.974 1157.31,676.762 1125.69,692.965Z" style="fill:rgb(45,45,45);stroke:rgb(45,45,45);stroke-width:2px;"/>
        </g>
        <g transform="matrix(1,0,0,1,-620.262,175.181)">
            <path d="M1187.73,464.819L1279.25,464.819C1219.52,497.155 1217.2,462.058 1191.68,502.071C1166.17,542.085 1178.93,578.618 1160.95,612.832C1152.34,629.217 1138.15,641.877 1125.69,650.624L1125.69,608.989C1148.75,581.087 1170.48,543.515 1155.04,512.805C1146.34,495.521 1162.71,480.246 1187.73,464.819Z" style="fill:rgb(39,39,39);stroke:rgb(39,39,39);stroke-width:2px;"/>
        </g>
        <g transform="matrix(1,0,0,1,-620.262,175.181)">
            <path d="M1125.69,608.989L1125.69,464.819L1187.73,464.819C1162.71,480.246 1146.34,495.521 1155.04,512.805C1170.48,543.515 1148.75,581.087 1125.69,608.989Z" style="fill:rgb(36,37,40);stroke:rgb(36,37,40);stroke-width:2px;"/>
        </g>
        <g transform="matrix(1,0,0,1,-620.262,175.181)">
            <path d="M1475.69,569.673L1475.69,614.324C1427.87,627.465 1376.98,630.358 1402.07,684.819C1414.35,711.468 1390.75,735.046 1383.15,741.573C1368.52,754.157 1348.79,735.934 1307.55,782.568C1260.71,835.527 1264.14,883.826 1268.85,904.819L1184.12,904.819C1178.62,872.947 1169.81,781.614 1243.18,757.561C1285.27,743.761 1316.07,730.713 1333.2,715.209C1343.24,706.135 1348.59,696.219 1348.79,684.819C1349.06,669.666 1313.37,651.891 1319.73,629.983C1330.9,591.49 1364.32,584.75 1475.69,569.673Z" style="fill:rgb(84,84,84);stroke:rgb(84,84,84);stroke-width:2px;"/>
        </g>
        <g transform="matrix(1,0,0,1,-620.262,175.181)">
            <path d="M1475.69,486.863L1475.69,569.673C1364.32,584.75 1330.9,591.49 1319.73,629.983C1313.37,651.891 1349.06,669.666 1348.79,684.819C1348.59,696.219 1343.24,706.135 1333.2,715.209C1316.07,730.713 1285.27,743.761 1243.18,757.561C1169.81,781.614 1178.62,872.947 1184.12,904.819L1125.69,904.819L1125.69,814.795C1139.14,771.793 1158.57,733.194 1185.26,730.595C1259.39,723.375 1323.65,669.417 1260,586.49C1224.01,539.602 1398.01,558.365 1435.71,520.091C1448.49,507.112 1461.54,495.667 1475.69,486.863Z" style="fill:rgb(70,70,70);stroke:rgb(70,70,70);stroke-width:2px;"/>
        </g>
        <g transform="matrix(1,0,0,1,-620.262,175.181)">
            <path d="M1402.15,464.819L1475.69,464.819L1475.69,486.863C1461.54,495.667 1448.49,507.112 1435.71,520.091C1398.01,558.365 1224.01,539.602 1260,586.49C1323.65,669.417 1259.39,723.375 1185.26,730.595C1158.57,733.194 1139.14,771.793 1125.69,814.795L1125.69,724.976C1163.78,708.222 1216.81,682.439 1225.7,665.284C1239.82,638.028 1195.16,554.733 1233.44,540C1271.71,525.267 1283.31,544.404 1348.84,521.208C1390.1,506.601 1395.03,483.027 1402.15,464.819Z" style="fill:rgb(64,64,64);stroke:rgb(64,64,64);stroke-width:2px;"/>
        </g>
        <g transform="matrix(1,0,0,1,-620.262,175.181)">
            <path d="M1352.24,464.819L1402.15,464.819C1395.03,483.027 1390.1,506.601 1348.84,521.208C1283.31,544.404 1271.71,525.267 1233.44,540C1195.16,554.733 1239.82,638.028 1225.7,665.284C1216.81,682.439 1163.78,708.222 1125.69,724.976L1125.69,692.965C1157.31,676.762 1195.84,647.974 1192.73,604.757C1187.51,532.269 1198.23,511.239 1259.42,507.334C1312.5,503.945 1339.01,484.194 1352.24,464.819Z" style="fill:rgb(52,52,52);stroke:rgb(52,52,52);stroke-width:2px;"/>
        </g>
        <g transform="matrix(1,0,0,1,-620.262,175.181)">
            <path d="M1475.69,782.972L1475.69,821.495C1466.43,827.33 1456.05,833.348 1444.86,839.967C1403.56,864.383 1422.37,904.819 1422.37,904.819L1377.77,904.819C1374.98,881.371 1377.82,842.795 1417.14,814.669C1436.4,800.887 1456.9,791.223 1475.69,782.972Z" style="fill:rgb(159,159,159);stroke:rgb(159,159,159);stroke-width:2px;"/>
        </g>
    </g>
</svg>
